<?xml version="1.0" standalone="no"?>
<!DOCTYPE svg PUBLIC "-//W3C//DTD SVG 20010904//EN"
 "http://www.w3.org/TR/2001/REC-SVG-20010904/DTD/svg10.dtd">
<svg version="1.0" xmlns="http://www.w3.org/2000/svg"
 width="300.000000pt" height="300.000000pt" viewBox="0 0 300.000000 300.000000"
 preserveAspectRatio="xMidYMid meet">
<metadata>
Created by potrace 1.10, written by Peter Selinger 2001-2011
</metadata>
<g transform="translate(0.000000,300.000000) scale(0.100000,-0.100000)"
fill="#000000" stroke="none">
<path d="M1095 2261 c-67 -41 -103 -114 -111 -228 -13 -178 75 -371 198 -434
160 -82 293 114 245 361 -45 226 -211 376 -332 301z"/>
<path d="M1762 2259 c-119 -59 -197 -230 -190 -419 2 -80 8 -104 31 -152 62
-126 178 -144 281 -43 170 165 183 518 22 616 -41 25 -91 24 -144 -2z"/>
<path d="M610 1853 c-8 -3 -30 -19 -48 -37 -113 -107 -58 -396 104 -546 119
-110 239 -105 304 10 34 62 35 184 2 282 -43 124 -134 237 -226 279 -39 18
-104 24 -136 12z"/>
<path d="M2251 1838 c-62 -30 -141 -115 -179 -190 -116 -227 -64 -458 102
-458 118 0 259 146 310 319 24 83 21 206 -6 261 -44 87 -134 114 -227 68z"/>
<path d="M1460 1491 c-74 -24 -129 -73 -195 -174 -56 -86 -179 -212 -260 -267
-75 -51 -123 -99 -152 -153 -26 -46 -25 -207 0 -259 29 -57 85 -108 156 -142
l66 -31 160 5 c236 7 415 6 545 -4 95 -7 126 -6 180 8 130 34 190 93 212 213
20 111 -32 222 -149 315 -73 58 -189 192 -249 287 -21 35 -53 82 -69 104 -51
69 -178 120 -245 98z m-264 -703 l27 -83 27 80 c19 56 32 81 45 84 14 2 16 -1
11 -15 -4 -11 -21 -56 -38 -102 -22 -60 -35 -82 -46 -80 -8 2 -29 39 -48 88
-37 97 -40 110 -20 110 9 0 25 -31 42 -82z m289 57 c20 -19 25 -34 25 -72 0
-56 -17 -85 -59 -103 -95 -39 -174 87 -105 169 22 26 33 31 70 31 34 0 51 -6
69 -25z m205 10 c0 -10 -11 -15 -35 -15 l-35 0 0 -85 c0 -69 -3 -85 -15 -85
-12 0 -15 16 -15 85 l0 85 -30 0 c-20 0 -30 5 -30 15 0 12 16 15 80 15 64 0
80 -3 80 -15z m170 0 c0 -12 -13 -15 -55 -15 -54 0 -55 0 -55 -30 0 -29 1 -30
50 -30 28 0 50 -4 50 -10 0 -5 -22 -10 -50 -10 l-50 0 0 -35 0 -35 60 0 c33 0
60 -4 60 -10 0 -6 -32 -10 -75 -10 l-75 0 0 100 0 100 70 0 c56 0 70 -3 70
-15z"/>
<path d="M1375 825 c-50 -49 -21 -135 44 -135 38 0 61 32 61 82 0 71 -59 100
-105 53z"/>
</g>
</svg>
